HIERARCHY
ROOT Hips
{
  OFFSET -5.087566 -161.629915 0.332252
  CHANNELS 6 Xposition Yposition Zposition Xrotation Yrotation Zrotation
  JOINT Spine
  {
    OFFSET 0.000000 0.000000 0.000000
    CHANNELS 3 Xrotation Yrotation Zrotation
    JOINT Chest
    {
      OFFSET 1.394183 72.460234 -49.803530
      CHANNELS 3 Xrotation Yrotation Zrotation
      JOINT Neck
      {
        OFFSET 1.436431 74.655998 -51.312727
        CHANNELS 3 Xrotation Yrotation Zrotation
        JOINT Head
        {
          OFFSET -0.651283 74.212775 -212.609220
          CHANNELS 3 Xrotation Yrotation Zrotation
          End Site
          {
            OFFSET 0.000000 0.000000 0.000000
          }
        }
      }
      JOINT LeftShoulder
      {
        OFFSET 59.578101 73.052767 -53.779869
        CHANNELS 3 Xrotation Yrotation Zrotation
        JOINT LeftElbow
        {
          OFFSET 0.000000 0.000000 0.000000
          CHANNELS 3 Xrotation Yrotation Zrotation
          JOINT LeftWrist
          {
            OFFSET 0.000000 0.000000 0.000000
            CHANNELS 3 Xrotation Yrotation Zrotation
            End Site
            {
              OFFSET 0.000000 0.000000 0.000000
            }
          }
        }
      }
      JOINT RightShoulder
      {
        OFFSET -56.705239 76.259230 -48.845586
        CHANNELS 3 Xrotation Yrotation Zrotation
        JOINT RightElbow
        {
          OFFSET 0.000000 0.000000 0.000000
          CHANNELS 3 Xrotation Yrotation Zrotation
          JOINT RightWrist
          {
            OFFSET 0.000000 0.000000 0.000000
            CHANNELS 3 Xrotation Yrotation Zrotation
            End Site
            {
              OFFSET 0.000000 0.000000 0.000000
            }
          }
        }
      }
    }
  }
  JOINT LeftHip
  {
    OFFSET 0.000000 0.000000 0.000000
    CHANNELS 3 Xrotation Yrotation Zrotation
    JOINT LeftKnee
    {
      OFFSET 0.000000 0.000000 0.000000
      CHANNELS 3 Xrotation Yrotation Zrotation
      JOINT LeftAnkle
      {
        OFFSET 0.000000 0.000000 0.000000
        CHANNELS 3 Xrotation Yrotation Zrotation
        End Site
        {
          OFFSET 0.000000 0.000000 0.000000
        }
      }
    }
  }
  JOINT RightHip
  {
    OFFSET 0.000000 0.000000 0.000000
    CHANNELS 3 Xrotation Yrotation Zrotation
    JOINT RightKnee
    {
      OFFSET 0.000000 0.000000 0.000000
      CHANNELS 3 Xrotation Yrotation Zrotation
      JOINT RightAnkle
      {
        OFFSET 0.000000 0.000000 0.000000
        CHANNELS 3 Xrotation Yrotation Zrotation
        End Site
        {
          OFFSET 0.000000 0.000000 0.000000
        }
      }
    }
  }
}
MOTION
Frames: 23
Frame Time: 0.041667
-5.087566 -161.629915 0.332252 0.000000 0.000000 0.000000 0.000000 0.000000 0.000000 0.000000 -0.000000 0.000000 0.000000 -0.000000 0.000000 0.000000 -0.000000 0.000000 0.000000 -0.000000 0.000000 0.000000 0.000000 0.000000 0.000000 0.000000 0.000000 0.000000 -0.000000 0.000000 0.000000 0.000000 0.000000 0.000000 0.000000 0.000000 0.000000 0.000000 0.000000 0.000000 0.000000 0.000000 0.000000 0.000000 0.000000 0.000000 0.000000 0.000000 0.000000 0.000000 0.000000 0.000000 0.000000 0.000000
-6.414890 -171.061957 0.351559 0.000000 0.000000 0.000000 0.000000 0.000000 0.000000 3.215988 -0.304401 -0.376790 3.215988 -0.304401 -0.376790 0.592983 -0.126357 -0.046660 12.882481 -9.807988 -0.177823 0.000000 0.000000 0.000000 0.000000 0.000000 0.000000 -7.205297 -5.566327 0.025377 0.000000 0.000000 0.000000 0.000000 0.000000 0.000000 0.000000 0.000000 0.000000 0.000000 0.000000 0.000000 0.000000 0.000000 0.000000 0.000000 0.000000 0.000000 0.000000 0.000000 0.000000 0.000000 0.000000 0.000000
-8.248520 -188.862898 0.428852 0.000000 0.000000 0.000000 0.000000 0.000000 0.000000 17.866575 -1.013937 -1.465943 17.866575 -1.013937 -1.465943 2.009127 0.347295 0.121908 23.301950 -17.824513 -3.548361 0.000000 0.000000 0.000000 0.000000 0.000000 0.000000 1.732274 0.789337 -0.791885 0.000000 0.000000 0.000000 0.000000 0.000000 0.000000 0.000000 0.000000 0.000000 0.000000 0.000000 0.000000 0.000000 0.000000 0.000000 0.000000 0.000000 0.000000 0.000000 0.000000 0.000000 0.000000 0.000000 0.000000
-9.502277 -196.327121 0.376068 0.000000 0.000000 0.000000 0.000000 0.000000 0.000000 19.277286 -1.695953 -2.937471 19.277286 -1.695953 -2.937471 0.624323 0.700994 0.247071 18.719937 -15.933052 -5.634340 0.000000 0.000000 0.000000 0.000000 0.000000 0.000000 7.006181 5.381009 0.697914 0.000000 0.000000 0.000000 0.000000 0.000000 0.000000 0.000000 0.000000 0.000000 0.000000 0.000000 0.000000 0.000000 0.000000 0.000000 0.000000 0.000000 0.000000 0.000000 0.000000 0.000000 0.000000 0.000000 0.000000
-11.055202 -197.917435 0.435129 0.000000 0.000000 0.000000 0.000000 0.000000 0.000000 25.671370 -1.993315 -3.926142 25.671370 -1.993315 -3.926142 0.729273 0.278242 0.096875 25.467790 -21.009903 -10.181183 0.000000 0.000000 0.000000 0.000000 0.000000 0.000000 8.431428 6.902589 1.832185 0.000000 0.000000 0.000000 0.000000 0.000000 0.000000 0.000000 0.000000 0.000000 0.000000 0.000000 0.000000 0.000000 0.000000 0.000000 0.000000 0.000000 0.000000 0.000000 0.000000 0.000000 0.000000 0.000000 0.000000
-14.903030 -202.241457 0.454374 0.000000 0.000000 0.000000 0.000000 0.000000 0.000000 20.191832 -2.237007 -4.161158 20.191832 -2.237007 -4.161158 0.868990 -0.306187 -0.112157 21.752922 -18.941521 -9.447335 0.000000 0.000000 0.000000 0.000000 0.000000 0.000000 4.916813 4.776061 2.209367 0.000000 0.000000 0.000000 0.000000 0.000000 0.000000 0.000000 0.000000 0.000000 0.000000 0.000000 0.000000 0.000000 0.000000 0.000000 0.000000 0.000000 0.000000 0.000000 0.000000 0.000000 0.000000 0.000000 0.000000
-18.330746 -200.919557 0.386336 0.000000 0.000000 0.000000 0.000000 0.000000 0.000000 37.544790 -2.359053 -6.221410 37.544790 -2.359053 -6.221410 0.073930 -0.108210 -0.038076 34.021723 -25.964579 -15.497349 0.000000 0.000000 0.000000 0.000000 0.000000 0.000000 14.883759 11.219123 2.441495 0.000000 0.000000 0.000000 0.000000 0.000000 0.000000 0.000000 0.000000 0.000000 0.000000 0.000000 0.000000 0.000000 0.000000 0.000000 0.000000 0.000000 0.000000 0.000000 0.000000 0.000000 0.000000 0.000000 0.000000
-23.051014 -200.097814 0.378628 0.000000 0.000000 0.000000 0.000000 0.000000 0.000000 52.826277 -2.016730 -8.447293 52.826277 -2.016730 -8.447293 0.068360 0.236517 0.082507 21.597067 -19.302517 -10.781555 0.000000 0.000000 0.000000 0.000000 0.000000 0.000000 50.182337 29.749910 13.145410 0.000000 0.000000 0.000000 0.000000 0.000000 0.000000 0.000000 0.000000 0.000000 0.000000 0.000000 0.000000 0.000000 0.000000 0.000000 0.000000 0.000000 0.000000 0.000000 0.000000 0.000000 0.000000 0.000000 0.000000
-25.547447 -198.178082 0.223275 0.000000 0.000000 0.000000 0.000000 0.000000 0.000000 61.824606 -1.434871 -7.974533 61.824606 -1.434871 -7.974533 1.224084 -0.753816 -0.275954 27.474052 -22.625675 -12.742374 0.000000 0.000000 0.000000 0.000000 0.000000 0.000000 57.583293 32.046468 18.871206 0.000000 0.000000 0.000000 0.000000 0.000000 0.000000 0.000000 0.000000 0.000000 0.000000 0.000000 0.000000 0.000000 0.000000 0.000000 0.000000 0.000000 0.000000 0.000000 0.000000 0.000000 0.000000 0.000000 0.000000
-26.870956 -176.097386 0.127008 0.000000 0.000000 0.000000 0.000000 0.000000 0.000000 78.909716 -0.462302 -8.020912 78.909716 -0.462302 -8.020912 4.475336 -1.160061 -0.470387 8.306571 -10.744390 -7.767908 0.000000 0.000000 0.000000 0.000000 0.000000 0.000000 89.455961 36.373470 37.127613 0.000000 0.000000 0.000000 0.000000 0.000000 0.000000 0.000000 0.000000 0.000000 0.000000 0.000000 0.000000 0.000000 0.000000 0.000000 0.000000 0.000000 0.000000 0.000000 0.000000 0.000000 0.000000 0.000000 0.000000
-28.292656 -177.231596 0.208182 0.000000 0.000000 0.000000 0.000000 0.000000 0.000000 66.229356 -1.197634 -8.488905 66.229356 -1.197634 -8.488905 8.281886 -0.473741 -0.230908 -12.995374 11.210350 -0.366346 0.000000 0.000000 0.000000 0.000000 0.000000 0.000000 96.941919 38.043534 36.481456 0.000000 0.000000 0.000000 0.000000 0.000000 0.000000 0.000000 0.000000 0.000000 0.000000 0.000000 0.000000 0.000000 0.000000 0.000000 0.000000 0.000000 0.000000 0.000000 0.000000 0.000000 0.000000 0.000000 0.000000
-27.078094 -178.212211 0.290022 0.000000 0.000000 0.000000 0.000000 0.000000 0.000000 38.160339 -2.937253 -8.413779 38.160339 -2.937253 -8.413779 15.303541 1.739497 0.832869 -25.058073 23.196588 -0.974476 0.000000 0.000000 0.000000 0.000000 0.000000 0.000000 99.403665 39.880182 33.074533 0.000000 0.000000 0.000000 0.000000 0.000000 0.000000 0.000000 0.000000 0.000000 0.000000 0.000000 0.000000 0.000000 0.000000 0.000000 0.000000 0.000000 0.000000 0.000000 0.000000 0.000000 0.000000 0.000000 0.000000
-10.154629 -174.974892 0.188589 0.000000 0.000000 0.000000 0.000000 0.000000 0.000000 32.440955 -2.182200 -4.989855 32.440955 -2.182200 -4.989855 89.344619 13.029277 25.768826 -29.032660 34.083924 3.398728 0.000000 0.000000 0.000000 0.000000 0.000000 0.000000 105.664412 44.465467 25.986463 0.000000 0.000000 0.000000 0.000000 0.000000 0.000000 0.000000 0.000000 0.000000 0.000000 0.000000 0.000000 0.000000 0.000000 0.000000 0.000000 0.000000 0.000000 0.000000 0.000000 0.000000 0.000000 0.000000 0.000000
0.600567 -167.877188 0.163193 0.000000 0.000000 0.000000 0.000000 0.000000 0.000000 49.782922 -1.197226 -2.491830 49.782922 -1.197226 -2.491830 114.065666 9.110933 35.089609 -24.965970 36.921903 9.193680 0.000000 0.000000 0.000000 0.000000 0.000000 0.000000 110.895409 44.350807 29.463192 0.000000 0.000000 0.000000 0.000000 0.000000 0.000000 0.000000 0.000000 0.000000 0.000000 0.000000 0.000000 0.000000 0.000000 0.000000 0.000000 0.000000 0.000000 0.000000 0.000000 0.000000 0.000000 0.000000 0.000000
3.304634 -151.738658 0.084939 0.000000 0.000000 0.000000 0.000000 0.000000 0.000000 53.434033 -0.976368 -1.112021 53.434033 -0.976368 -1.112021 132.095202 2.899851 30.762485 -19.370092 41.289385 17.810935 0.000000 0.000000 0.000000 0.000000 0.000000 0.000000 110.749805 47.825471 22.104115 0.000000 0.000000 0.000000 0.000000 0.000000 0.000000 0.000000 0.000000 0.000000 0.000000 0.000000 0.000000 0.000000 0.000000 0.000000 0.000000 0.000000 0.000000 0.000000 0.000000 0.000000 0.000000 0.000000 0.000000
1.021214 -147.038355 -0.134530 0.000000 0.000000 0.000000 0.000000 0.000000 0.000000 59.357798 -1.164007 -3.099972 59.357798 -1.164007 -3.099972 137.099142 1.496433 30.099757 2.001449 39.511918 40.979103 0.000000 0.000000 0.000000 0.000000 0.000000 0.000000 100.272217 53.587680 -0.233193 0.000000 0.000000 0.000000 0.000000 0.000000 0.000000 0.000000 0.000000 0.000000 0.000000 0.000000 0.000000 0.000000 0.000000 0.000000 0.000000 0.000000 0.000000 0.000000 0.000000 0.000000 0.000000 0.000000 0.000000
2.762108 -132.460120 -0.255656 0.000000 0.000000 0.000000 0.000000 0.000000 0.000000 47.903292 -0.871309 -0.650068 47.903292 -0.871309 -0.650068 140.721620 0.472353 22.812190 34.308569 13.368666 74.195422 0.000000 0.000000 0.000000 0.000000 0.000000 0.000000 48.263610 29.018146 -71.001528 0.000000 0.000000 0.000000 0.000000 0.000000 0.000000 0.000000 0.000000 0.000000 0.000000 0.000000 0.000000 0.000000 0.000000 0.000000 0.000000 0.000000 0.000000 0.000000 0.000000 0.000000 0.000000 0.000000 0.000000
0.139294 -132.078302 -0.244079 0.000000 0.000000 0.000000 0.000000 0.000000 0.000000 49.228685 -0.752289 0.091334 49.228685 -0.752289 0.091334 142.543040 0.140846 19.127185 35.684056 10.923492 75.443190 0.000000 0.000000 0.000000 0.000000 0.000000 0.000000 47.787289 28.153516 -68.357610 0.000000 0.000000 0.000000 0.000000 0.000000 0.000000 0.000000 0.000000 0.000000 0.000000 0.000000 0.000000 0.000000 0.000000 0.000000 0.000000 0.000000 0.000000 0.000000 0.000000 0.000000 0.000000 0.000000 0.000000
-4.636879 -128.847442 -0.134467 0.000000 0.000000 0.000000 0.000000 0.000000 0.000000 36.168637 -0.587454 0.001850 36.168637 -0.587454 0.001850 142.758318 0.081241 21.232393 36.985559 8.418025 76.571887 0.000000 0.000000 0.000000 0.000000 0.000000 0.000000 36.779485 4.669230 -70.902438 0.000000 0.000000 0.000000 0.000000 0.000000 0.000000 0.000000 0.000000 0.000000 0.000000 0.000000 0.000000 0.000000 0.000000 0.000000 0.000000 0.000000 0.000000 0.000000 0.000000 0.000000 0.000000 0.000000 0.000000
-4.651966 -127.153251 -0.196319 0.000000 0.000000 0.000000 0.000000 0.000000 0.000000 59.808501 -0.839472 0.863035 59.808501 -0.839472 0.863035 146.134032 -0.247075 13.929132 58.156892 -40.892214 60.234049 0.000000 0.000000 0.000000 0.000000 0.000000 0.000000 33.980312 -2.669066 -71.806347 0.000000 0.000000 0.000000 0.000000 0.000000 0.000000 0.000000 0.000000 0.000000 0.000000 0.000000 0.000000 0.000000 0.000000 0.000000 0.000000 0.000000 0.000000 0.000000 0.000000 0.000000 0.000000 0.000000 0.000000
-4.768600 -128.433309 -0.187679 0.000000 0.000000 0.000000 0.000000 0.000000 0.000000 51.048742 -0.662685 0.823065 51.048742 -0.662685 0.823065 144.200617 -0.044666 15.279132 48.602804 -25.265717 68.716672 0.000000 0.000000 0.000000 0.000000 0.000000 0.000000 34.878025 -0.104194 -71.319557 0.000000 0.000000 0.000000 0.000000 0.000000 0.000000 0.000000 0.000000 0.000000 0.000000 0.000000 0.000000 0.000000 0.000000 0.000000 0.000000 0.000000 0.000000 0.000000 0.000000 0.000000 0.000000 0.000000 0.000000
-6.559906 -126.707726 -0.176842 0.000000 0.000000 0.000000 0.000000 0.000000 0.000000 41.367405 -0.007158 2.657555 41.367405 -0.007158 2.657555 115.004548 6.493983 25.934991 49.876203 -29.914327 42.303243 0.000000 0.000000 0.000000 0.000000 0.000000 0.000000 20.420250 -7.960357 -44.884498 0.000000 0.000000 0.000000 0.000000 0.000000 0.000000 0.000000 0.000000 0.000000 0.000000 0.000000 0.000000 0.000000 0.000000 0.000000 0.000000 0.000000 0.000000 0.000000 0.000000 0.000000 0.000000 0.000000 0.000000
-16.194859 -128.612008 -0.228318 0.000000 0.000000 0.000000 0.000000 0.000000 0.000000 40.012251 0.833835 5.701659 40.012251 0.833835 5.701659 47.874691 -20.537300 -19.462999 84.615939 -44.081588 -14.953481 0.000000 0.000000 0.000000 0.000000 0.000000 0.000000 -14.201477 -19.363601 -8.254920 0.000000 0.000000 0.000000 0.000000 0.000000 0.000000 0.000000 0.000000 0.000000 0.000000 0.000000 0.000000 0.000000 0.000000 0.000000 0.000000 0.000000 0.000000 0.000000 0.000000 0.000000 0.000000 0.000000 0.000000
